<svg width="1256" height="500" viewBox="0 0 1256 500" fill="none" xmlns="http://www.w3.org/2000/svg">
<path d="M0 100C0 44.7715 44.7715 0 100 0H400C455.228 0 500 44.7715 500 100V400C500 455.228 455.228 500 400 500H100C44.7715 500 0 455.228 0 400V100Z" fill="black"/>
<path d="M609.207 214.056H594.407C591.588 214.056 590.178 212.725 590.178 210.062V85.3177C590.178 83.7516 589.395 82.9685 587.829 82.9685H558.229C555.41 82.9685 554 81.6373 554 78.9748V66.9937C554 64.3312 555.41 63 558.229 63H645.385C648.204 63 649.614 64.3312 649.614 66.9937V78.9748C649.614 81.6373 648.204 82.9685 645.385 82.9685H615.785C614.062 82.9685 613.201 83.7516 613.201 85.3177V210.062C613.201 212.725 611.869 214.056 609.207 214.056Z" fill="black"/>
<path d="M707.075 194.087H727.513C738.946 194.087 744.662 188.292 744.662 176.703V100.353C744.662 88.7633 738.946 82.9685 727.513 82.9685H707.075C695.798 82.9685 690.16 88.7633 690.16 100.353V176.703C690.16 188.292 695.798 194.087 707.075 194.087ZM731.037 214.056H703.786C692.196 214.056 683.191 210.845 676.77 204.424C670.505 198.003 667.373 189.076 667.373 177.643V99.4131C667.373 87.8236 670.505 78.8965 676.77 72.6319C683.191 66.2106 692.196 63 703.786 63H731.037C742.626 63 751.632 66.2106 758.053 72.6319C764.474 78.8965 767.685 87.8236 767.685 99.4131V177.643C767.685 189.076 764.474 198.003 758.053 204.424C751.632 210.845 742.626 214.056 731.037 214.056Z" fill="black"/>
<path d="M818.137 214.056H803.336C800.674 214.056 799.343 212.725 799.343 210.062V66.9937C799.343 64.3312 800.674 63 803.336 63H859.248C870.681 63 879.608 66.2106 886.029 72.6319C892.451 78.8965 895.661 87.8236 895.661 99.4131V123.845C895.661 135.278 892.451 144.205 886.029 150.626C879.608 157.048 870.681 160.258 859.248 160.258H824.949C823.07 160.258 822.13 161.041 822.13 162.608V210.062C822.13 212.725 820.799 214.056 818.137 214.056ZM824.714 140.055H855.959C867.079 140.055 872.639 134.26 872.639 122.671V100.353C872.639 88.7633 867.079 82.9685 855.959 82.9685H824.714C822.992 82.9685 822.13 83.7516 822.13 85.3177V137.706C822.13 139.272 822.992 140.055 824.714 140.055Z" fill="black"/>
<path d="M968.864 99.883V86.0225C968.864 83.5166 969.96 81.6373 972.153 80.3843L996.585 65.5842C999.56 63.8614 1002.07 63 1004.1 63H1018.2C1020.86 63 1022.19 64.3312 1022.19 66.9937V210.062C1022.19 212.725 1020.94 214.056 1018.43 214.056H1003.16C1000.5 214.056 999.169 212.725 999.169 210.062V87.432L973.562 102.232C970.43 103.642 968.864 102.859 968.864 99.883Z" fill="black"/>
<path d="M1092.94 194.087H1109.62C1120.89 194.087 1126.53 188.292 1126.53 176.703V100.353C1126.53 88.7633 1120.89 82.9685 1109.62 82.9685H1092.94C1081.66 82.9685 1076.02 88.7633 1076.02 100.353V176.703C1076.02 188.292 1081.66 194.087 1092.94 194.087ZM1112.91 214.056H1089.41C1077.82 214.056 1068.82 210.845 1062.4 204.424C1055.98 198.003 1052.77 189.076 1052.77 177.643V99.4131C1052.77 87.8236 1055.98 78.8965 1062.4 72.6319C1068.82 66.2106 1077.82 63 1089.41 63H1112.91C1124.34 63 1133.27 66.2106 1139.69 72.6319C1146.11 78.8965 1149.32 87.8236 1149.32 99.4131V177.643C1149.32 189.076 1146.11 198.003 1139.69 204.424C1133.27 210.845 1124.34 214.056 1112.91 214.056Z" fill="black"/>
<path d="M671.227 285.394H697.538C700.201 285.394 701.532 286.725 701.532 289.388V432.456C701.532 435.119 700.201 436.45 697.538 436.45H682.973C680.311 436.45 678.979 435.119 678.979 432.456V313.82H678.04L647.5 399.802C646.56 402.308 644.837 403.561 642.331 403.561H627.296C624.947 403.561 623.302 402.308 622.363 399.802L591.118 313.585H590.178V432.456C590.178 434.022 589.865 435.119 589.239 435.745C588.769 436.215 587.751 436.45 586.185 436.45H571.854C569.192 436.45 567.86 435.119 567.86 432.456V289.388C567.86 286.725 569.192 285.394 571.854 285.394H598.166C599.888 285.394 601.141 286.256 601.924 287.978L634.109 378.659H635.284L667.703 287.978C668.016 286.256 669.191 285.394 671.227 285.394Z" fill="black"/>
<path d="M773.147 416.481H793.585C805.018 416.481 810.735 410.687 810.735 399.097V322.747C810.735 311.157 805.018 305.363 793.585 305.363H773.147C761.871 305.363 756.232 311.157 756.232 322.747V399.097C756.232 410.687 761.871 416.481 773.147 416.481ZM797.109 436.45H769.858C758.268 436.45 749.263 433.239 742.842 426.818C736.577 420.397 733.445 411.47 733.445 400.037V321.807C733.445 310.218 736.577 301.291 742.842 295.026C749.263 288.605 758.268 285.394 769.858 285.394H797.109C808.699 285.394 817.704 288.605 824.125 295.026C830.546 301.291 833.757 310.218 833.757 321.807V400.037C833.757 411.47 830.546 420.397 824.125 426.818C817.704 433.239 808.699 436.45 797.109 436.45Z" fill="black"/>
<path d="M920.387 436.45H897.13C894.467 436.45 892.823 435.119 892.196 432.456L853.199 289.858C852.259 286.882 853.434 285.394 856.723 285.394H873.402C875.908 285.394 877.396 286.725 877.866 289.388L908.171 412.018H909.111L939.181 289.388C939.807 286.725 941.373 285.394 943.879 285.394H960.324C963.613 285.394 964.866 286.882 964.083 289.858L924.85 432.456C924.224 435.119 922.736 436.45 920.387 436.45Z" fill="black"/>
<path d="M1009.82 289.388V432.456C1009.82 435.119 1008.49 436.45 1005.83 436.45H991.027C988.365 436.45 987.034 435.119 987.034 432.456V289.388C987.034 286.725 988.365 285.394 991.027 285.394H1005.83C1008.49 285.394 1009.82 286.725 1009.82 289.388Z" fill="black"/>
<path d="M1124.45 436.45H1049.27C1046.61 436.45 1045.28 435.119 1045.28 432.456V289.388C1045.28 286.725 1046.61 285.394 1049.27 285.394H1124.45C1126.95 285.394 1128.21 286.725 1128.21 289.388V301.369C1128.21 304.031 1126.95 305.363 1124.45 305.363H1070.88C1069.01 305.363 1068.07 306.146 1068.07 307.712V347.414C1068.07 348.98 1069.01 349.763 1070.88 349.763H1116.23C1119.04 349.763 1120.45 351.094 1120.45 353.757V365.738C1120.45 368.4 1119.04 369.732 1116.23 369.732H1070.88C1069.01 369.732 1068.07 370.515 1068.07 372.081V413.897C1068.07 415.62 1069.01 416.481 1070.88 416.481H1124.45C1126.95 416.481 1128.21 417.813 1128.21 420.475V432.456C1128.21 435.119 1126.95 436.45 1124.45 436.45Z" fill="black"/>
<path d="M1155.33 399.802V393.694C1155.33 391.031 1156.66 389.7 1159.33 389.7H1174.36C1177.02 389.7 1178.35 391.031 1178.35 393.694V397.923C1178.35 404.5 1179.76 409.277 1182.58 412.253C1185.56 415.072 1190.41 416.481 1197.15 416.481H1213.36C1220.09 416.481 1224.95 414.994 1227.92 412.018C1230.9 408.886 1232.39 403.874 1232.39 396.983V391.58C1232.39 386.568 1230.43 382.652 1226.51 379.833C1222.76 376.858 1218.06 374.978 1212.42 374.195C1206.78 373.256 1200.59 372.003 1193.86 370.436C1187.13 368.87 1180.94 367.069 1175.3 365.033C1169.66 362.997 1164.89 359.16 1160.97 353.522C1157.21 347.884 1155.33 340.68 1155.33 331.909V322.042C1155.33 310.609 1158.54 301.682 1164.96 295.261C1171.54 288.683 1180.55 285.394 1191.98 285.394H1216.88C1228.47 285.394 1237.48 288.683 1243.9 295.261C1250.48 301.682 1253.77 310.609 1253.77 322.042V327.211C1253.77 329.873 1252.43 331.204 1249.77 331.204H1234.74C1232.07 331.204 1230.74 329.873 1230.74 327.211V324.157C1230.74 317.422 1229.26 312.645 1226.28 309.826C1223.46 306.851 1218.68 305.363 1211.95 305.363H1197.15C1190.41 305.363 1185.56 306.929 1182.58 310.061C1179.76 313.037 1178.35 318.205 1178.35 325.566V332.849C1178.35 339.896 1183.44 344.673 1193.62 347.179C1198.17 348.275 1203.1 349.215 1208.43 349.998C1213.91 350.781 1219.39 351.956 1224.87 353.522C1230.35 355.088 1235.36 357.202 1239.9 359.865C1244.45 362.371 1248.13 366.286 1250.95 371.611C1253.77 376.779 1255.17 383.122 1255.17 390.64V399.802C1255.17 411.235 1251.89 420.24 1245.31 426.818C1238.89 433.239 1229.96 436.45 1218.53 436.45H1192.22C1180.78 436.45 1171.78 433.239 1165.2 426.818C1158.62 420.24 1155.33 411.235 1155.33 399.802Z" fill="black"/>
<path d="M97 195.244V163.523C97 159.139 98.9357 155.787 102.807 153.466L138.037 131.416C143.974 127.805 149.006 126 153.136 126H184.108C189.528 126 192.238 128.708 192.238 134.124V366.614C192.238 369.708 191.592 371.9 190.302 373.19C189.27 374.221 187.334 374.737 184.495 374.737H151.2C145.78 374.737 143.07 372.029 143.07 366.614V178.223L105.13 199.886C99.71 202.207 97 200.66 97 195.244Z" fill="white"/>
<path d="M309.924 332.185H332.765C341.024 332.185 346.832 330.509 350.187 327.156C353.542 323.546 355.22 317.614 355.22 309.361V191.376C355.22 183.123 353.542 177.321 350.187 173.968C346.832 170.357 341.024 168.552 332.765 168.552H309.924C301.665 168.552 295.857 170.357 292.502 173.968C289.147 177.321 287.469 183.123 287.469 191.376V309.361C287.469 317.614 289.147 323.546 292.502 327.156C295.857 330.509 301.665 332.185 309.924 332.185ZM340.508 374.737H301.794C281.404 374.737 265.66 369.321 254.562 358.49C243.464 347.658 237.915 332.056 237.915 311.683V189.055C237.915 168.681 243.464 153.079 254.562 142.247C265.66 131.416 281.404 126 301.794 126H340.508C360.64 126 376.255 131.545 387.353 142.634C398.451 153.466 404 168.939 404 189.055V311.683C404 331.798 398.451 347.401 387.353 358.49C376.255 369.321 360.64 374.737 340.508 374.737Z" fill="white"/>
</svg>
